<svg version="1.1" id="Layer_1" xmlns="http://www.w3.org/2000/svg" xmlns:xlink="http://www.w3.org/1999/xlink" x="0px" y="0px"
	 width="100%" viewBox="0 0 354 354" enable-background="new 0 0 354 354" xml:space="preserve">
<path fill="#FFE5FF" opacity="1.000000" stroke="none"
	d="
M145.000000,1.000001
	C166.687561,1.000000 188.375122,1.000000 210.225769,1.345773
	C211.381256,2.127419 212.334076,2.767914 213.371948,2.968492
	C229.072174,6.002728 244.217499,11.007278 258.357483,18.258022
	C280.616028,29.671806 300.502014,44.553249 315.804382,64.561096
	C324.092651,75.398033 331.748505,86.916832 338.148346,98.947929
	C345.537720,112.839310 350.440247,127.889114 353.084595,143.544464
	C353.182007,144.121048 354.337555,144.518875 355.000000,145.000000
	C355.000000,166.687561 355.000000,188.375122 354.654236,210.225769
	C353.872589,211.381256 353.232056,212.334106 353.031494,213.371979
	C349.997253,229.072220 344.992676,244.217529 337.741943,258.357513
	C326.328125,280.616028 311.446777,300.502075 291.438904,315.804413
	C280.601959,324.092682 269.083130,331.748505 257.052063,338.148346
	C243.160706,345.537750 228.110870,350.440216 212.455536,353.084595
	C211.878952,353.181976 211.481125,354.337555 211.000000,355.000000
	C189.312439,355.000000 167.624878,355.000000 145.774231,354.654236
	C144.618744,353.872589 143.665894,353.232056 142.628021,353.031494
	C126.927803,349.997223 111.782471,344.992706 97.642494,337.741943
	C75.383987,326.328094 55.497898,311.446808 40.195580,291.438873
	C31.907335,280.601898 24.251482,269.083130 17.851652,257.052063
	C10.462257,243.160690 5.559792,228.110870 2.915395,212.455536
	C2.818006,211.878967 1.662434,211.481125 1.000001,211.000000
	C1.000000,189.312439 1.000000,167.624878 1.345777,145.774231
	C2.127426,144.618729 2.767909,143.665863 2.968493,142.627975
	C6.002770,126.927757 11.007342,111.782440 18.258072,97.642426
	C29.671820,75.383904 44.553356,55.498081 64.561172,40.195740
	C75.398102,31.907465 86.916840,24.251549 98.947906,17.851688
	C112.839272,10.462246 127.889114,5.559799 143.544464,2.915396
	C144.121033,2.818006 144.518875,1.662433 145.000000,1.000001
M135.604141,96.587662
	C137.730225,86.725624 139.856308,76.863579 142.000473,66.094933
	C140.951477,58.751816 140.558350,51.238979 138.711609,44.102291
	C135.280579,30.843100 123.377945,23.120859 110.007393,25.097797
	C101.457497,26.361965 96.154533,31.781675 93.871185,40.058464
	C92.743721,44.145367 91.406914,46.354820 86.801025,43.114117
	C84.678902,41.620995 81.495087,41.163437 78.767990,41.084030
	C65.767693,40.705490 54.765255,49.999779 49.981823,65.819206
	C47.237541,75.983574 47.097847,86.064194 51.054680,96.761101
	C54.650238,111.115654 63.979424,120.907433 76.559341,127.695457
	C99.736572,140.201691 124.585793,142.787750 150.271988,138.818024
	C153.658615,138.294632 157.587997,137.152298 159.593384,131.452621
	C143.481796,135.584259 128.784439,133.360291 112.859566,130.321106
	C114.656570,128.649231 115.346710,128.010620 116.033104,127.367996
	C125.037292,118.937988 132.118408,109.300789 135.604141,96.587662
M262.059753,297.323029
	C263.452484,308.841064 270.350067,313.692200 281.727753,311.312714
	C290.209320,309.538910 295.058838,303.435547 298.968994,296.554016
	C300.304840,294.203033 300.851501,290.797272 300.375214,288.119507
	C296.777313,267.892548 293.199280,247.649170 288.917480,227.559601
	C281.874329,194.514252 273.550751,161.766144 260.385437,130.548004
	C256.147186,120.498039 251.098877,110.405228 244.474670,101.836853
	C234.756363,89.266304 226.415863,85.254997 211.799393,97.409454
	C199.833908,107.359436 191.167816,120.034988 183.129700,133.074707
	C156.093613,176.933517 136.520142,224.309601 118.447067,272.342773
	C116.984940,276.228699 116.927223,280.875977 117.159943,285.117767
	C117.632553,293.731934 124.323860,301.163513 133.145966,303.493439
	C141.111908,305.597290 145.554688,300.392456 149.658478,294.984833
	C151.230530,292.913300 152.478958,290.475739 153.361191,288.020416
	C159.659515,270.491577 165.578232,252.822449 172.119034,235.385986
	C176.543015,223.592560 181.773956,212.101425 186.663315,200.483215
	C188.355042,196.463303 190.900116,196.721085 194.257675,198.654800
	C199.142868,201.468353 204.081757,204.330643 209.308456,206.379578
	C220.061066,210.594803 230.400177,209.895691 239.958374,202.641724
	C241.741470,201.288498 245.198685,199.727814 246.376572,200.515610
	C248.529556,201.955582 250.490967,204.933426 250.893005,207.524261
	C252.674896,219.007202 253.862808,230.581955 255.287323,242.120804
	C257.522705,260.227997 259.775543,278.333038 262.059753,297.323029
z"/>

<path fill="#FF7BA2" opacity="1.000000" stroke="none"
	d="
M262.040344,296.881012
	C259.775543,278.333038 257.522705,260.227997 255.287323,242.120804
	C253.862808,230.581955 252.674896,219.007202 250.893005,207.524261
	C250.490967,204.933426 248.529556,201.955582 246.376572,200.515610
	C245.198685,199.727814 241.741470,201.288498 239.958374,202.641724
	C230.400177,209.895691 220.061066,210.594803 209.308456,206.379578
	C204.081757,204.330643 199.142868,201.468353 194.257675,198.654800
	C190.900116,196.721085 188.355042,196.463303 186.663315,200.483215
	C181.773956,212.101425 176.543015,223.592560 172.119034,235.385986
	C165.578232,252.822449 159.659515,270.491577 153.361191,288.020416
	C152.478958,290.475739 151.230530,292.913300 149.658478,294.984833
	C145.554688,300.392456 141.111908,305.597290 133.145966,303.493439
	C124.323860,301.163513 117.632553,293.731934 117.159943,285.117767
	C116.927223,280.875977 116.984940,276.228699 118.447067,272.342773
	C136.520142,224.309601 156.093613,176.933517 183.129700,133.074707
	C191.167816,120.034988 199.833908,107.359436 211.799393,97.409454
	C226.415863,85.254997 234.756363,89.266304 244.474670,101.836853
	C251.098877,110.405228 256.147186,120.498039 260.385437,130.548004
	C273.550751,161.766144 281.874329,194.514252 288.917480,227.559601
	C293.199280,247.649170 296.777313,267.892548 300.375214,288.119507
	C300.851501,290.797272 300.304840,294.203033 298.968994,296.554016
	C295.058838,303.435547 290.209320,309.538910 281.727753,311.312714
	C270.350067,313.692200 263.452484,308.841064 262.040344,296.881012
M148.396133,215.915054
	C140.603195,235.724319 132.834702,255.543259 124.999840,275.335938
	C123.086296,280.169983 123.615257,284.792206 125.771927,289.337036
	C128.014755,294.063446 132.380646,296.322418 137.043915,296.425995
	C141.698959,296.529358 143.963272,292.527893 145.391724,288.340973
	C148.559738,279.055298 151.720535,269.765320 155.053528,260.538208
	C166.756516,228.139496 178.884155,195.880478 195.087738,165.417923
	C200.346115,155.532211 206.986679,146.183578 214.191849,137.593124
	C220.148499,130.491257 228.997940,130.848770 235.155518,137.874985
	C239.197922,142.487671 242.421921,148.182739 244.691864,153.915909
	C251.835449,171.958450 254.144104,191.199921 257.131012,210.194138
	C260.223022,229.856583 262.475403,249.651398 265.067017,269.391998
	C266.362518,279.259857 267.287018,289.188812 268.968689,298.989014
	C270.034363,305.199280 276.595367,308.209930 282.515442,305.966064
	C290.113617,303.086151 295.282501,294.922852 293.883789,287.006927
	C290.737854,269.202759 287.516205,251.405716 283.905518,233.691360
	C277.095276,200.279541 269.152100,167.155426 256.012421,135.544907
	C251.080063,123.678963 245.409882,112.162750 235.744736,103.235489
	C228.743088,96.768372 223.399399,96.247330 216.166962,101.674202
	C212.595718,104.353912 208.911423,107.234436 206.302216,110.778038
	C198.833054,120.922043 191.497406,131.207367 184.816223,141.879684
	C170.295670,165.074417 159.594055,190.202545 148.396133,215.915054
M229.974533,180.569855
	C232.453461,180.386841 234.958923,179.884583 237.405731,180.087967
	C242.336456,180.497849 244.050964,177.898758 242.886642,173.792435
	C240.415848,165.078476 238.245941,156.116211 234.381561,148.004196
	C230.138321,139.096909 222.560715,138.141586 216.021667,145.644257
	C209.988998,152.565933 205.065308,160.559784 200.363434,168.501877
	C196.683075,174.718491 198.633652,178.915131 205.771774,179.866440
	C213.443375,180.888840 221.296051,180.552612 229.974533,180.569855
M229.812180,185.801025
	C220.181061,185.493851 210.551147,185.098312 200.917633,184.967087
	C199.325043,184.945389 196.416306,185.990738 196.367538,186.698181
	C196.238388,188.572067 196.747910,191.204590 198.047791,192.352936
	C212.644531,205.248123 225.950409,205.082642 240.827560,192.764740
	C241.912231,191.866623 243.007858,189.682617 242.621643,188.647400
	C242.173813,187.447052 240.177811,186.361145 238.702911,186.109222
	C236.107986,185.666016 233.398376,185.894211 229.812180,185.801025
z"/>
<path fill="#FFBBFB" opacity="1.000000" stroke="none"
	d="
M50.041149,65.005127
	C54.765255,49.999779 65.767693,40.705490 78.767990,41.084030
	C81.495087,41.163437 84.678902,41.620995 86.801025,43.114117
	C91.406914,46.354820 92.743721,44.145367 93.871185,40.058464
	C96.154533,31.781675 101.457497,26.361965 110.007393,25.097797
	C123.377945,23.120859 135.280579,30.843100 138.711609,44.102291
	C140.558350,51.238979 140.951477,58.751816 141.644562,66.488159
	C138.464798,63.141224 134.978836,61.984070 130.514969,63.857006
	C129.520477,64.274277 128.226074,63.976807 127.046623,63.566254
	C125.864159,57.138752 125.159248,51.015804 123.401642,45.211636
	C121.997192,40.573700 117.700569,39.068569 113.030624,39.001266
	C108.308525,38.933212 107.068405,42.625233 106.666885,45.977943
	C105.927658,52.150440 105.563293,58.441277 105.868805,64.642097
	C106.111000,69.557899 104.174667,74.185020 100.222626,74.965050
	C96.075584,75.783562 91.850853,73.293190 90.862930,67.764816
	C89.241470,58.691120 78.924034,52.304100 72.580261,56.535027
	C69.144539,58.826450 66.824509,62.790730 63.712067,65.775230
	C61.789494,64.700462 60.132839,63.113037 58.527687,63.163506
	C55.682350,63.252968 52.868294,64.337158 50.041149,65.005127
z"/>
<path fill="#FFB2F4" opacity="1.000000" stroke="none"
	d="
M135.054062,97.061913
	C132.118408,109.300789 125.037292,118.937988 116.033104,127.367996
	C115.346710,128.010620 114.656570,128.649231 112.859566,130.321106
	C128.784439,133.360291 143.481796,135.584259 159.593384,131.452621
	C157.587997,137.152298 153.658615,138.294632 150.271988,138.818024
	C124.585793,142.787750 99.736572,140.201691 76.559341,127.695457
	C63.979424,120.907433 54.650238,111.115654 51.353333,96.233299
	C55.766140,95.470734 59.880291,95.235977 64.145325,95.314102
	C71.268097,111.494209 85.349739,118.515968 100.231514,124.928520
	C107.280655,115.099052 114.130211,105.547897 121.362175,95.952774
	C126.352951,94.309387 130.998871,92.276398 135.054062,97.061913
z"/>
<path fill="#FFB7F7" opacity="1.000000" stroke="none"
	d="
M135.329102,96.824783
	C130.998871,92.276398 126.352951,94.309387 121.408455,95.573059
	C123.071465,84.827682 125.070618,74.418045 127.069763,64.008415
	C128.226074,63.976807 129.520477,64.274277 130.514969,63.857006
	C134.978836,61.984070 138.464798,63.141224 141.635529,66.941460
	C139.856308,76.863579 137.730225,86.725624 135.329102,96.824783
z"/>
<path fill="#FFB7F8" opacity="1.000000" stroke="none"
	d="
M63.994446,95.001221
	C59.880291,95.235977 55.766140,95.470734 51.302437,95.860916
	C47.097847,86.064194 47.237541,75.983574 50.011486,65.412170
	C52.868294,64.337158 55.682350,63.252968 58.527687,63.163506
	C60.132839,63.113037 61.789494,64.700462 63.666523,66.164154
	C63.276466,70.648140 62.063221,74.530701 62.147312,78.384949
	C62.268394,83.934494 63.332695,89.463470 63.994446,95.001221
z"/>
<path fill="#FFE4FE" opacity="1.000000" stroke="none"
	d="
M148.558929,215.568848
	C159.594055,190.202545 170.295670,165.074417 184.816223,141.879684
	C191.497406,131.207367 198.833054,120.922043 206.302216,110.778038
	C208.911423,107.234436 212.595718,104.353912 216.166962,101.674202
	C223.399399,96.247330 228.743088,96.768372 235.744736,103.235489
	C245.409882,112.162750 251.080063,123.678963 256.012421,135.544907
	C269.152100,167.155426 277.095276,200.279541 283.905518,233.691360
	C287.516205,251.405716 290.737854,269.202759 293.883789,287.006927
	C295.282501,294.922852 290.113617,303.086151 282.515442,305.966064
	C276.595367,308.209930 270.034363,305.199280 268.968689,298.989014
	C267.287018,289.188812 266.362518,279.259857 265.067017,269.391998
	C262.475403,249.651398 260.223022,229.856583 257.131012,210.194138
	C254.144104,191.199921 251.835449,171.958450 244.691864,153.915909
	C242.421921,148.182739 239.197922,142.487671 235.155518,137.874985
	C228.997940,130.848770 220.148499,130.491257 214.191849,137.593124
	C206.986679,146.183578 200.346115,155.532211 195.087738,165.417923
	C178.884155,195.880478 166.756516,228.139496 155.053528,260.538208
	C151.720535,269.765320 148.559738,279.055298 145.391724,288.340973
	C143.963272,292.527893 141.698959,296.529358 137.043915,296.425995
	C132.380646,296.322418 128.014755,294.063446 125.771927,289.337036
	C123.615257,284.792206 123.086296,280.169983 124.999840,275.335938
	C132.834702,255.543259 140.603195,235.724319 148.558929,215.568848
z"/>
<path fill="#FFE4FE" opacity="1.000000" stroke="none"
	d="
M229.522125,180.689545
	C221.296051,180.552612 213.443375,180.888840 205.771774,179.866440
	C198.633652,178.915131 196.683075,174.718491 200.363434,168.501877
	C205.065308,160.559784 209.988998,152.565933 216.021667,145.644257
	C222.560715,138.141586 230.138321,139.096909 234.381561,148.004196
	C238.245941,156.116211 240.415848,165.078476 242.886642,173.792435
	C244.050964,177.898758 242.336456,180.497849 237.405731,180.087967
	C234.958923,179.884583 232.453461,180.386841 229.522125,180.689545
z"/>
<path fill="#FFE2FD" opacity="1.000000" stroke="none"
	d="
M230.274490,185.821136
	C233.398376,185.894211 236.107986,185.666016 238.702911,186.109222
	C240.177811,186.361145 242.173813,187.447052 242.621643,188.647400
	C243.007858,189.682617 241.912231,191.866623 240.827560,192.764740
	C225.950409,205.082642 212.644531,205.248123 198.047791,192.352936
	C196.747910,191.204590 196.238388,188.572067 196.367538,186.698181
	C196.416306,185.990738 199.325043,184.945389 200.917633,184.967087
	C210.551147,185.098312 220.181061,185.493851 230.274490,185.821136
z"/>
<path fill="#FFE4FF" opacity="1.000000" stroke="none"
	d="
M64.145325,95.314102
	C63.332695,89.463470 62.268394,83.934494 62.147312,78.384949
	C62.063221,74.530701 63.276466,70.648140 63.955643,66.389305
	C66.824509,62.790730 69.144539,58.826450 72.580261,56.535027
	C78.924034,52.304100 89.241470,58.691120 90.862930,67.764816
	C91.850853,73.293190 96.075584,75.783562 100.222626,74.965050
	C104.174667,74.185020 106.111000,69.557899 105.868805,64.642097
	C105.563293,58.441277 105.927658,52.150440 106.666885,45.977943
	C107.068405,42.625233 108.308525,38.933212 113.030624,39.001266
	C117.700569,39.068569 121.997192,40.573700 123.401642,45.211636
	C125.159248,51.015804 125.864159,57.138752 127.046623,63.566254
	C125.070618,74.418045 123.071465,84.827682 121.026039,95.617027
	C114.130211,105.547897 107.280655,115.099052 100.231514,124.928520
	C85.349739,118.515968 71.268097,111.494209 64.145325,95.314102
z"/>
</svg>
